  0
SECTION
  2
HEADER
  9
$ACADVER
  1
AC1015
  9
$ACADMAINTVER
 70
     6
  9
$DWGCODEPAGE
  3
ANSI_1252
  9
$INSBASE
 10
0.0
 20
0.0
 30
0.0
  9
$EXTMIN
 10
-20.6
 20
0.0
 30
0.0
  9
$EXTMAX
 10
20.6
 20
20.0
 30
0.0
  9
$LIMMIN
 10
0.0
 20
0.0
  9
$LIMMAX
 10
420.0
 20
297.0
  9
$ORTHOMODE
 70
     0
  9
$REGENMODE
 70
     1
  9
$FILLMODE
 70
     1
  9
$QTEXTMODE
 70
     0
  9
$MIRRTEXT
 70
     1
  9
$LTSCALE
 40
1.0
  9
$ATTMODE
 70
     1
  9
$TEXTSIZE
 40
3.5
  9
$TRACEWID
 40
1.0
  9
$TEXTSTYLE
  7
Standard
  9
$CLAYER
  8
0
  9
$CELTYPE
  6
ByLayer
  9
$CECOLOR
 62
   256
  9
$CELTSCALE
 40
1.0
  9
$DISPSILH
 70
     0
  9
$DIMSCALE
 40
1.0
  9
$DIMASZ
 40
3.302
  9
$DIMEXO
 40
1.0
  9
$DIMDLI
 40
3.75
  9
$DIMRND
 40
0.0
  9
$DIMDLE
 40
0.0
  9
$DIMEXE
 40
1.0
  9
$DIMTP
 40
0.0
  9
$DIMTM
 40
0.0
  9
$DIMTXT
 40
3.5
  9
$DIMCEN
 40
2.5
  9
$DIMTSZ
 40
0.0
  9
$DIMTOL
 70
     0
  9
$DIMLIM
 70
     0
  9
$DIMTIH
 70
     1
  9
$DIMTOH
 70
     1
  9
$DIMSE1
 70
     0
  9
$DIMSE2
 70
     0
  9
$DIMTAD
 70
     1
  9
$DIMZIN
 70
     0
  9
$DIMBLK
  1

  9
$DIMASO
 70
     1
  9
$DIMSHO
 70
     1
  9
$DIMPOST
  1

  9
$DIMAPOST
  1

  9
$DIMALT
 70
     0
  9
$DIMALTD
 70
     3
  9
$DIMALTF
 40
0.0393700787
  9
$DIMLFAC
 40
1.0
  9
$DIMTOFL
 70
     1
  9
$DIMTVP
 40
0.0
  9
$DIMTIX
 70
     0
  9
$DIMSOXD
 70
     0
  9
$DIMSAH
 70
     0
  9
$DIMBLK1
  1

  9
$DIMBLK2
  1

  9
$DIMSTYLE
  2
ISO-25
  9
$DIMCLRD
 70
     0
  9
$DIMCLRE
 70
     0
  9
$DIMCLRT
 70
     0
  9
$DIMTFAC
 40
1.0
  9
$DIMGAP
 40
1.524
  9
$DIMJUST
 70
     0
  9
$DIMSD1
 70
     0
  9
$DIMSD2
 70
     0
  9
$DIMTOLJ
 70
     0
  9
$DIMTZIN
 70
     0
  9
$DIMALTZ
 70
     0
  9
$DIMALTTZ
 70
     0
  9
$DIMUPT
 70
     0
  9
$DIMDEC
 70
     2
  9
$DIMTDEC
 70
     2
  9
$DIMALTU
 70
     2
  9
$DIMALTTD
 70
     3
  9
$DIMTXSTY
  7
Standard
  9
$DIMAUNIT
 70
     0
  9
$DIMADEC
 70
     2
  9
$DIMALTRND
 40
0.0
  9
$DIMAZIN
 70
     0
  9
$DIMDSEP
 70
    44
  9
$DIMATFIT
 70
     3
  9
$DIMFRAC
 70
     0
  9
$DIMLDRBLK
  1

  9
$DIMLUNIT
 70
     2
  9
$DIMLWD
 70
    -2
  9
$DIMLWE
 70
    -2
  9
$DIMTMOVE
 70
     0
  9
$LUNITS
 70
     2
  9
$LUPREC
 70
     2
  9
$SKETCHINC
 40
1.0
  9
$FILLETRAD
 40
10.0
  9
$AUNITS
 70
     0
  9
$AUPREC
 70
     2
  9
$MENU
  1
.
  9
$ELEVATION
 40
0.0
  9
$PELEVATION
 40
0.0
  9
$THICKNESS
 40
0.0
  9
$LIMCHECK
 70
     0
  9
$CHAMFERA
 40
0.0
  9
$CHAMFERB
 40
0.0
  9
$CHAMFERC
 40
0.0
  9
$CHAMFERD
 40
0.0
  9
$SKPOLY
 70
     0
  9
$TDCREATE
 40
2457919.483483762
  9
$TDUCREATE
 40
2457919.150150428
  9
$TDUPDATE
 40
2457919.483508796
  9
$TDUUPDATE
 40
2457919.150175463
  9
$TDINDWG
 40
0.0000000116
  9
$TDUSRTIMER
 40
0.0000000116
  9
$USRTIMER
 70
     1
  9
$ANGBASE
 50
0.0
  9
$ANGDIR
 70
     0
  9
$PDMODE
 70
     0
  9
$PDSIZE
 40
-1.0
  9
$PLINEWID
 40
0.0
  9
$SPLFRAME
 70
     0
  9
$SPLINETYPE
 70
     6
  9
$SPLINESEGS
 70
     8
  9
$HANDSEED
  5
D6
  9
$SURFTAB1
 70
     6
  9
$SURFTAB2
 70
     6
  9
$SURFTYPE
 70
     6
  9
$SURFU
 70
     6
  9
$SURFV
 70
     6
  9
$UCSBASE
  2

  9
$UCSNAME
  2

  9
$UCSORG
 10
0.0
 20
0.0
 30
0.0
  9
$UCSXDIR
 10
1.0
 20
0.0
 30
0.0
  9
$UCSYDIR
 10
0.0
 20
1.0
 30
0.0
  9
$UCSORTHOREF
  2

  9
$UCSORTHOVIEW
 70
     0
  9
$UCSORGTOP
 10
0.0
 20
0.0
 30
0.0
  9
$UCSORGBOTTOM
 10
0.0
 20
0.0
 30
0.0
  9
$UCSORGLEFT
 10
0.0
 20
0.0
 30
0.0
  9
$UCSORGRIGHT
 10
0.0
 20
0.0
 30
0.0
  9
$UCSORGFRONT
 10
0.0
 20
0.0
 30
0.0
  9
$UCSORGBACK
 10
0.0
 20
0.0
 30
0.0
  9
$PUCSBASE
  2

  9
$PUCSNAME
  2

  9
$PUCSORG
 10
0.0
 20
0.0
 30
0.0
  9
$PUCSXDIR
 10
1.0
 20
0.0
 30
0.0
  9
$PUCSYDIR
 10
0.0
 20
1.0
 30
0.0
  9
$PUCSORTHOREF
  2

  9
$PUCSORTHOVIEW
 70
     0
  9
$PUCSORGTOP
 10
0.0
 20
0.0
 30
0.0
  9
$PUCSORGBOTTOM
 10
0.0
 20
0.0
 30
0.0
  9
$PUCSORGLEFT
 10
0.0
 20
0.0
 30
0.0
  9
$PUCSORGRIGHT
 10
0.0
 20
0.0
 30
0.0
  9
$PUCSORGFRONT
 10
0.0
 20
0.0
 30
0.0
  9
$PUCSORGBACK
 10
0.0
 20
0.0
 30
0.0
  9
$USERI1
 70
     0
  9
$USERI2
 70
     0
  9
$USERI3
 70
     0
  9
$USERI4
 70
     0
  9
$USERI5
 70
     0
  9
$USERR1
 40
0.0
  9
$USERR2
 40
0.0
  9
$USERR3
 40
0.0
  9
$USERR4
 40
0.0
  9
$USERR5
 40
0.0
  9
$WORLDVIEW
 70
     1
  9
$SHADEDGE
 70
     3
  9
$SHADEDIF
 70
    70
  9
$TILEMODE
 70
     1
  9
$MAXACTVP
 70
    64
  9
$PINSBASE
 10
0.0
 20
0.0
 30
0.0
  9
$PLIMCHECK
 70
     0
  9
$PEXTMIN
 10
1.0000000000E+20
 20
1.0000000000E+20
 30
1.0000000000E+20
  9
$PEXTMAX
 10
-1.0000000000E+20
 20
-1.0000000000E+20
 30
-1.0000000000E+20
  9
$PLIMMIN
 10
0.0
 20
0.0
  9
$PLIMMAX
 10
420.0
 20
297.0
  9
$UNITMODE
 70
     0
  9
$VISRETAIN
 70
     1
  9
$PLINEGEN
 70
     0
  9
$PSLTSCALE
 70
     1
  9
$TREEDEPTH
 70
  3020
  9
$CMLSTYLE
  2
Standard
  9
$CMLJUST
 70
     0
  9
$CMLSCALE
 40
20.0
  9
$PROXYGRAPHICS
 70
     1
  9
$MEASUREMENT
 70
     1
  9
$CELWEIGHT
370
    -1
  9
$ENDCAPS
280
     0
  9
$JOINSTYLE
280
     0
  9
$LWDISPLAY
290
     1
  9
$INSUNITS
 70
     4
  9
$HYPERLINKBASE
  1

  9
$STYLESHEET
  1

  9
$XEDIT
290
     1
  9
$CEPSNTYPE
380
     0
  9
$PSTYLEMODE
290
     1
  9
$FINGERPRINTGUID
  2
{272D4E17-7649-4D2D-BE16-06C077DE0AF9}
  9
$VERSIONGUID
  2
{FAEB1C32-E019-11D5-929B-00C0DF256EC4}
  9
$EXTNAMES
290
     1
  9
$PSVPSCALE
 40
0.0
  9
$OLESTARTUP
290
     0
  0
ENDSEC
  0
SECTION
  2
CLASSES
  0
CLASS
  1
ACDBDICTIONARYWDFLT
  2
AcDbDictionaryWithDefault
  3
ObjectDBX Classes
 90
        0
280
     0
281
     0
  0
CLASS
  1
VISUALSTYLE
  2
AcDbVisualStyle
  3
ObjectDBX Classes
 90
     4095
280
     0
281
     0
  0
CLASS
  1
MATERIAL
  2
AcDbMaterial
  3
ObjectDBX Classes
 90
     1153
280
     0
281
     0
  0
CLASS
  1
SCALE
  2
AcDbScale
  3
ObjectDBX Classes
 90
     1153
280
     0
281
     0
  0
CLASS
  1
TABLESTYLE
  2
AcDbTableStyle
  3
ObjectDBX Classes
 90
     4095
280
     0
281
     0
  0
CLASS
  1
MLEADERSTYLE
  2
AcDbMLeaderStyle
  3
ACDB_MLEADERSTYLE_CLASS
 90
     4095
280
     0
281
     0
  0
CLASS
  1
SUN
  2
AcDbSun
  3
SCENEOE
 90
     1153
280
     0
281
     0
  0
CLASS
  1
ACDBPLACEHOLDER
  2
AcDbPlaceHolder
  3
ObjectDBX Classes
 90
        0
280
     0
281
     0
  0
CLASS
  1
LAYOUT
  2
AcDbLayout
  3
ObjectDBX Classes
 90
        0
280
     0
281
     0
  0
ENDSEC
  0
SECTION
  2
TABLES
  0
TABLE
  2
VPORT
  5
8
330
0
100
AcDbSymbolTable
 70
     1
  0
VPORT
  5
29
330
8
100
AcDbSymbolTableRecord
100
AcDbViewportTableRecord
  2
*Active
 70
     0
 10
0.0
 20
0.0
 11
1.0
 21
1.0
 12
0.0
 22
10.0
 13
0.0
 23
0.0
 14
10.0
 24
10.0
 15
10.0
 25
10.0
 16
0.0
 26
0.0
 36
1.0
 17
0.0
 27
0.0
 37
0.0
 40
20.4
 41
2.06
 42
50.0
 43
0.0
 44
0.0
 50
0.0
 51
0.0
 71
     0
 72
   100
 73
     1
 74
     3
 75
     0
 76
     0
 77
     0
 78
     0
281
     0
 65
     1
110
0.0
120
0.0
130
0.0
111
1.0
121
0.0
131
0.0
112
0.0
122
1.0
132
0.0
 79
     0
146
0.0
  0
ENDTAB
  0
TABLE
  2
LTYPE
  5
5
330
0
100
AcDbSymbolTable
 70
     6
  0
LTYPE
  5
14
330
5
100
AcDbSymbolTableRecord
100
AcDbLinetypeTableRecord
  2
ByBlock
 70
     0
  3

 72
    65
 73
     0
 40
0.0
  0
LTYPE
  5
15
330
5
100
AcDbSymbolTableRecord
100
AcDbLinetypeTableRecord
  2
ByLayer
 70
     0
  3

 72
    65
 73
     0
 40
0.0
  0
LTYPE
  5
16
330
5
100
AcDbSymbolTableRecord
100
AcDbLinetypeTableRecord
  2
Continuous
 70
     0
  3
Solid line
 72
    65
 73
     0
 40
0.0
  0
LTYPE
  5
6E
330
5
100
AcDbSymbolTableRecord
100
AcDbLinetypeTableRecord
  2
HIDDEN
 70
     0
  3
Hidden __ __ __ __ __ __ __ __ __ __ __ __ __ __
 72
    65
 73
     2
 40
1.905
 49
1.27
 74
     0
 49
-0.635
 74
     0
  0
LTYPE
  5
6F
330
5
100
AcDbSymbolTableRecord
100
AcDbLinetypeTableRecord
  2
PHANTOM
 70
     0
  3
Phantom ______  __  __  ______  __  __  ______
 72
    65
 73
     6
 40
12.7
 49
6.35
 74
     0
 49
-1.27
 74
     0
 49
1.27
 74
     0
 49
-1.27
 74
     0
 49
1.27
 74
     0
 49
-1.27
 74
     0
  0
LTYPE
  5
70
330
5
100
AcDbSymbolTableRecord
100
AcDbLinetypeTableRecord
  2
CENTER
 70
     0
  3
Center ____ _ ____ _ ____ _ ____ _ ____ _ ____
 72
    65
 73
     4
 40
10.16
 49
6.35
 74
     0
 49
-1.27
 74
     0
 49
1.27
 74
     0
 49
-1.27
 74
     0
  0
LTYPE
  5
71
330
5
100
AcDbSymbolTableRecord
100
AcDbLinetypeTableRecord
  2
CENTERX2
 70
     0
  3
Center (2x) ________  __  ________  __  _____
 72
    65
 73
     4
 40
20.32
 49
12.7
 74
     0
 49
-2.54
 74
     0
 49
2.54
 74
     0
 49
-2.54
 74
     0
  0
LTYPE
  5
72
330
5
100
AcDbSymbolTableRecord
100
AcDbLinetypeTableRecord
  2
DOT2
 70
     0
  3
Dot (.5x) ........................................
 72
    65
 73
     2
 40
0.635
 49
0.0
 74
     0
 49
-0.635
 74
     0
  0
ENDTAB
  0
TABLE
  2
LAYER
  5
2
330
0
100
AcDbSymbolTable
 70
     1
  0
LAYER
  5
10
330
2
100
AcDbSymbolTableRecord
100
AcDbLayerTableRecord
  2
0
 70
     0
 62
     7
  6
Continuous
370
    -3
390
F
  0
ENDTAB
  0
TABLE
  2
STYLE
  5
3
330
0
100
AcDbSymbolTable
 70
     2
  0
STYLE
  5
11
330
3
100
AcDbSymbolTableRecord
100
AcDbTextStyleTableRecord
  2
Standard
 70
     0
 40
0.0
 41
1.0
 50
0.0
 71
     0
 42
3.5
  3
txt
  4

  0
STYLE
  5
D3
330
3
100
AcDbSymbolTableRecord
100
AcDbTextStyleTableRecord
  2
SLDTEXTSTYLE0
 70
     0
 40
0.0
 41
0.7
 50
0.0
 71
     0
 42
3.5
  3
TXT
  4

  0
ENDTAB
  0
TABLE
  2
VIEW
  5
6
330
0
100
AcDbSymbolTable
 70
     0
  0
ENDTAB
  0
TABLE
  2
UCS
  5
7
330
0
100
AcDbSymbolTable
 70
     0
  0
ENDTAB
  0
TABLE
  2
APPID
  5
9
330
0
100
AcDbSymbolTable
 70
     1
  0
APPID
  5
12
330
9
100
AcDbSymbolTableRecord
100
AcDbRegAppTableRecord
  2
ACAD
 70
     0
  0
ENDTAB
  0
TABLE
  2
DIMSTYLE
  5
A
330
0
100
AcDbSymbolTable
 70
     1
100
AcDbDimStyleTable
  0
DIMSTYLE
105
27
330
A
100
AcDbSymbolTableRecord
100
AcDbDimStyleTableRecord
  2
ISO-25
 70
     0
 41
2.5
 42
0.625
 43
3.75
 44
1.25
 73
     0
 74
     0
 77
     1
 78
     8
140
2.5
141
2.5
143
0.0393700787
147
0.625
171
     3
172
     1
178
     0
271
     2
272
     2
274
     3
278
    44
283
     0
284
     8
340
11
  0
ENDTAB
  0
TABLE
  2
BLOCK_RECORD
  5
1
330
0
100
AcDbSymbolTable
 70
     1
  0
BLOCK_RECORD
  5
1F
330
1
100
AcDbSymbolTableRecord
100
AcDbBlockTableRecord
  2
*Model_Space
340
22
  0
BLOCK_RECORD
  5
1B
330
1
100
AcDbSymbolTableRecord
100
AcDbBlockTableRecord
  2
*Paper_Space
340
1E
  0
BLOCK_RECORD
  5
23
330
1
100
AcDbSymbolTableRecord
100
AcDbBlockTableRecord
  2
*Paper_Space0
340
26
  0
ENDTAB
  0
ENDSEC
  0
SECTION
  2
BLOCKS
  0
BLOCK
  5
20
330
1F
100
AcDbEntity
  8
0
100
AcDbBlockBegin
  2
*Model_Space
 70
     0
 10
0.0
 20
0.0
 30
0.0
  3
*Model_Space
  1

  0
ENDBLK
  5
21
330
1F
100
AcDbEntity
  8
0
100
AcDbBlockEnd
  0
BLOCK
  5
1C
330
1B
100
AcDbEntity
 67
     1
  8
0
100
AcDbBlockBegin
  2
*Paper_Space
 70
     0
 10
0.0
 20
0.0
 30
0.0
  3
*Paper_Space
  1

  0
ENDBLK
  5
1D
330
1B
100
AcDbEntity
 67
     1
  8
0
100
AcDbBlockEnd
  0
BLOCK
  5
24
330
23
100
AcDbEntity
  8
0
100
AcDbBlockBegin
  2
*Paper_Space0
 70
     0
 10
0.0
 20
0.0
 30
0.0
  3
*Paper_Space0
  1

  0
ENDBLK
  5
25
330
23
100
AcDbEntity
  8
0
100
AcDbBlockEnd
  0
ENDSEC
  0
SECTION
  2
ENTITIES
  0
LINE
  5
73
330
1F
100
AcDbEntity
  8
0
  6
Continuous
 62
     7
370
    15
100
AcDbLine
 10
4.9309595276
 20
13.0944520319
 30
0.0
 11
3.9844451045
 21
13.0944520319
 31
0.0
  0
LINE
  5
74
330
1F
100
AcDbEntity
  8
0
  6
Continuous
 62
     7
370
    15
100
AcDbLine
 10
3.9844451045
 20
13.0944520319
 30
0.0
 11
3.9844451045
 21
16.5944520319
 31
0.0
  0
LINE
  5
75
330
1F
100
AcDbEntity
  8
0
  6
Continuous
 62
     7
370
    15
100
AcDbLine
 10
3.9844451045
 20
16.5944520319
 30
0.0
 11
4.6673377327
 21
16.5944520319
 31
0.0
  0
SPLINE
  5
76
330
1F
100
AcDbEntity
  8
0
  6
Continuous
 62
     7
370
    15
100
AcDbSpline
210
0.0
220
0.0
230
1.0
 70
     8
 71
     3
 72
    23
 73
    19
 74
     0
 42
0.000000001
 43
0.00000001
 40
0.0
 40
0.0
 40
0.0
 40
0.0
 40
0.0625940971873324
 40
0.1213229386347497
 40
0.1766801421977668
 40
0.2283650957096762
 40
0.2768684458368088
 40
0.3218791276660474
 40
0.3640986251098925
 40
0.4033556962427022
 40
0.4779679481633703
 40
0.5505354613647749
 40
0.6235844567403236
 40
0.6981748822642044
 40
0.7733536703408745
 40
0.8472811254977337
 40
0.9228183395566688
 40
1.0
 40
1.0
 40
1.0
 40
1.0
 10
4.667337732742065
 20
16.59445203186467
 30
0.0
 10
4.700766210929853
 20
16.59427628146291
 30
0.0
 10
4.765558921266296
 20
16.5939356334439
 30
0.0
 10
4.859778363095036
 20
16.58865250229692
 30
0.0
 10
4.948027173735571
 20
16.58144883241828
 30
0.0
 10
5.030330946086109
 20
16.57001873977408
 30
0.0
 10
5.106651648477186
 20
16.55622696262874
 30
0.0
 10
5.17721928571502
 20
16.53952514653841
 30
0.0
 10
5.241809457983323
 20
16.51949853287938
 30
0.0
 10
5.318922194389486
 20
16.48765225164695
 30
0.0
 10
5.406842855268319
 20
16.44032908329722
 30
0.0
 10
5.502041247971302
 20
16.37040051814821
 30
0.0
 10
5.583445487330619
 20
16.28486805502782
 30
0.0
 10
5.653631804571579
 20
16.18838539960352
 30
0.0
 10
5.709432924182803
 20
16.08224962785249
 30
0.0
 10
5.749802221498499
 20
15.96899043907497
 30
0.0
 10
5.775360096857154
 20
15.85006869715543
 30
0.0
 10
5.777988531073055
 20
15.7684255192765
 30
0.0
 10
5.779316899408735
 20
15.72716437160826
 30
0.0
  0
SPLINE
  5
77
330
1F
100
AcDbEntity
  8
0
  6
Continuous
 62
     7
370
    15
100
AcDbSpline
210
0.0
220
0.0
230
1.0
 70
     8
 71
     3
 72
    15
 73
    11
 74
     0
 42
0.000000001
 43
0.00000001
 40
0.0
 40
0.0
 40
0.0
 40
0.0
 40
0.1305691070873103
 40
0.2565806086940833
 40
0.3805516168036833
 40
0.5036229172007077
 40
0.6257393231697875
 40
0.7475485819596274
 40
0.8717661185648727
 40
1.0
 40
1.0
 40
1.0
 40
1.0
 10
5.779316899408735
 20
15.72716437160826
 30
0.0
 10
5.778223680966176
 20
15.6885118159303
 30
0.0
 10
5.776075403631021
 20
15.61255589890929
 30
0.0
 10
5.755532644298262
 20
15.50146178962564
 30
0.0
 10
5.723371975858722
 20
15.39571057079829
 30
0.0
 10
5.678666726694779
 20
15.2956881853814
 30
0.0
 10
5.620564730496686
 20
15.20365457223575
 30
0.0
 10
5.551706411831579
 20
15.1188673061907
 30
0.0
 10
5.468629609340605
 20
15.04491624919575
 30
0.0
 10
5.406386369352686
 20
15.00357334664503
 30
0.0
 10
5.374769623767709
 20
14.98257302545441
 30
0.0
  0
SPLINE
  5
78
330
1F
100
AcDbEntity
  8
0
  6
Continuous
 62
     7
370
    15
100
AcDbSpline
210
0.0
220
0.0
230
1.0
 70
     8
 71
     3
 72
    19
 73
    15
 74
     0
 42
0.000000001
 43
0.00000001
 40
0.0
 40
0.0
 40
0.0
 40
0.0
 40
0.1060574933033955
 40
0.2029142570846091
 40
0.2903001653958375
 40
0.3702225656250387
 40
0.4463837207709703
 40
0.5213968999648279
 40
0.598291082846457
 40
0.6761424688569266
 40
0.7555286995560221
 40
0.8348871724576573
 40
0.9166460487466405
 40
1.0
 40
1.0
 40
1.0
 40
1.0
 10
5.374769623767709
 20
14.98257302545441
 30
0.0
 10
5.414530051362505
 20
14.96730802651379
 30
0.0
 10
5.490601598741854
 20
14.93810230211888
 30
0.0
 10
5.595287611173812
 20
14.88646683812183
 30
0.0
 10
5.685482456169944
 20
14.83030472773045
 30
0.0
 10
5.761879602155141
 20
14.76897287758676
 30
0.0
 10
5.827217257071778
 20
14.70286406679663
 30
0.0
 10
5.884270198644659
 20
14.63100895254828
 30
0.0
 10
5.93295157280556
 20
14.55247019467089
 30
0.0
 10
5.97466449637114
 20
14.46806665930848
 30
0.0
 10
6.007213252397372
 20
14.37866019095162
 30
0.0
 10
6.031589156767103
 20
14.28508941485423
 30
0.0
 10
6.045556605902912
 20
14.18768985965988
 30
0.0
 10
6.047544247181109
 20
14.12140448032139
 30
0.0
 10
6.048547668639503
 20
14.087941615198
 30
0.0
  0
SPLINE
  5
79
330
1F
100
AcDbEntity
  8
0
  6
Continuous
 62
     7
370
    15
100
AcDbSpline
210
0.0
220
0.0
230
1.0
 70
     8
 71
     3
 72
    23
 73
    19
 74
     0
 42
0.000000001
 43
0.00000001
 40
0.0
 40
0.0
 40
0.0
 40
0.0
 40
0.0611602766365177
 40
0.1203345577262026
 40
0.1781802550631249
 40
0.2352351259863636
 40
0.2926829614441794
 40
0.3511862482150797
 40
0.4104566095096929
 40
0.4717198544629947
 40
0.5337612027725883
 40
0.5957390238870949
 40
0.6578875151248849
 40
0.7212951802914606
 40
0.7868225145418887
 40
0.854686153828684
 40
0.9254779862699957
 40
1.0
 40
1.0
 40
1.0
 40
1.0
 10
6.048547668639503
 20
14.087941615198
 30
0.0
 10
6.047570822616171
 20
14.05377474307612
 30
0.0
 10
6.045648850698305
 20
13.98655046496977
 30
0.0
 10
6.031468878901556
 20
13.88779533041927
 30
0.0
 10
6.007459771910661
 20
13.79342038380647
 30
0.0
 10
5.974388625545966
 20
13.70281520110223
 30
0.0
 10
5.931226310947653
 20
13.61615506663156
 30
0.0
 10
5.878698346616214
 20
13.53334180264504
 30
0.0
 10
5.816066782993377
 20
13.45520747203197
 30
0.0
 10
5.746003914041458
 20
13.38088384892896
 30
0.0
 10
5.66674176855277
 20
13.31405606158921
 30
0.0
 10
5.581226013630223
 20
13.25454035490788
 30
0.0
 10
5.488379693736576
 20
13.20559429279242
 30
0.0
 10
5.389727699720125
 20
13.16447827128956
 30
0.0
 10
5.284163383605891
 20
13.13307107282453
 30
0.0
 10
5.172160776246078
 20
13.11109849892521
 30
0.0
 10
5.053816474411099
 20
13.09629346192661
 30
0.0
 10
4.972606723299587
 20
13.09507625703167
 30
0.0
 10
4.930959527613861
 20
13.09445203186467
 30
0.0
  0
LINE
  5
7A
330
1F
100
AcDbEntity
  8
0
  6
Continuous
 62
     7
370
    15
100
AcDbLine
 10
0.3947015148
 20
13.0944520319
 30
0.0
 11
-1.5796574596
 21
13.0944520319
 31
0.0
  0
LINE
  5
7B
330
1F
100
AcDbEntity
  8
0
  6
Continuous
 62
     7
370
    15
100
AcDbLine
 10
-1.5796574596
 20
13.0944520319
 30
0.0
 11
-1.5796574596
 21
16.5944520319
 31
0.0
  0
LINE
  5
7C
330
1F
100
AcDbEntity
  8
0
  6
Continuous
 62
     7
370
    15
100
AcDbLine
 10
-1.5796574596
 20
16.5944520319
 30
0.0
 11
0.3947015148
 21
16.5944520319
 31
0.0
  0
LINE
  5
7D
330
1F
100
AcDbEntity
  8
0
  6
Continuous
 62
     7
370
    15
100
AcDbLine
 10
0.3947015148
 20
16.5944520319
 30
0.0
 11
0.3947015148
 21
16.2354776729
 31
0.0
  0
LINE
  5
7E
330
1F
100
AcDbEntity
  8
0
  6
Continuous
 62
     7
370
    15
100
AcDbLine
 10
0.3947015148
 20
16.2354776729
 30
0.0
 11
-1.2655548955
 21
16.2354776729
 31
0.0
  0
LINE
  5
7F
330
1F
100
AcDbEntity
  8
0
  6
Continuous
 62
     7
370
    15
100
AcDbLine
 10
-1.2655548955
 20
16.2354776729
 30
0.0
 11
-1.2655548955
 21
15.158554596
 31
0.0
  0
LINE
  5
80
330
1F
100
AcDbEntity
  8
0
  6
Continuous
 62
     7
370
    15
100
AcDbLine
 10
-1.2655548955
 20
15.158554596
 30
0.0
 11
0.3947015148
 21
15.158554596
 31
0.0
  0
LINE
  5
81
330
1F
100
AcDbEntity
  8
0
  6
Continuous
 62
     7
370
    15
100
AcDbLine
 10
0.3947015148
 20
15.158554596
 30
0.0
 11
0.3947015148
 21
14.799580237
 31
0.0
  0
LINE
  5
82
330
1F
100
AcDbEntity
  8
0
  6
Continuous
 62
     7
370
    15
100
AcDbLine
 10
0.3947015148
 20
14.799580237
 30
0.0
 11
-1.2655548955
 21
14.799580237
 31
0.0
  0
LINE
  5
83
330
1F
100
AcDbEntity
  8
0
  6
Continuous
 62
     7
370
    15
100
AcDbLine
 10
-1.2655548955
 20
14.799580237
 30
0.0
 11
-1.2655548955
 21
13.4534263908
 31
0.0
  0
LINE
  5
84
330
1F
100
AcDbEntity
  8
0
  6
Continuous
 62
     7
370
    15
100
AcDbLine
 10
-1.2655548955
 20
13.4534263908
 30
0.0
 11
0.3947015148
 21
13.4534263908
 31
0.0
  0
LINE
  5
85
330
1F
100
AcDbEntity
  8
0
  6
Continuous
 62
     7
370
    15
100
AcDbLine
 10
0.3947015148
 20
13.4534263908
 30
0.0
 11
0.3947015148
 21
13.0944520319
 31
0.0
  0
LINE
  5
86
330
1F
100
AcDbEntity
  8
0
  6
Continuous
 62
     7
370
    15
100
AcDbLine
 10
-3.6886318185
 20
13.0944520319
 30
0.0
 11
-3.7335036134
 21
13.0944520319
 31
0.0
  0
LINE
  5
87
330
1F
100
AcDbEntity
  8
0
  6
Continuous
 62
     7
370
    15
100
AcDbLine
 10
-3.7335036134
 20
13.0944520319
 30
0.0
 11
-5.2142728442
 21
16.5944520319
 31
0.0
  0
LINE
  5
88
330
1F
100
AcDbEntity
  8
0
  6
Continuous
 62
     7
370
    15
100
AcDbLine
 10
-5.2142728442
 20
16.5944520319
 30
0.0
 11
-4.8777343826
 21
16.5944520319
 31
0.0
  0
LINE
  5
89
330
1F
100
AcDbEntity
  8
0
  6
Continuous
 62
     7
370
    15
100
AcDbLine
 10
-4.8777343826
 20
16.5944520319
 30
0.0
 11
-3.711067716
 21
13.8362388908
 31
0.0
  0
LINE
  5
8A
330
1F
100
AcDbEntity
  8
0
  6
Continuous
 62
     7
370
    15
100
AcDbLine
 10
-3.711067716
 20
13.8362388908
 30
0.0
 11
-2.5444010493
 21
16.5944520319
 31
0.0
  0
LINE
  5
8B
330
1F
100
AcDbEntity
  8
0
  6
Continuous
 62
     7
370
    15
100
AcDbLine
 10
-2.5444010493
 20
16.5944520319
 30
0.0
 11
-2.2078625878
 21
16.5944520319
 31
0.0
  0
LINE
  5
8C
330
1F
100
AcDbEntity
  8
0
  6
Continuous
 62
     7
370
    15
100
AcDbLine
 10
-2.2078625878
 20
16.5944520319
 30
0.0
 11
-3.6886318185
 21
13.0944520319
 31
0.0
  0
SPLINE
  5
8D
330
1F
100
AcDbEntity
  8
0
  6
Continuous
 62
     7
370
    15
100
AcDbSpline
210
0.0
220
0.0
230
1.0
 70
     8
 71
     3
 72
    23
 73
    19
 74
     0
 42
0.000000001
 43
0.00000001
 40
0.0
 40
0.0
 40
0.0
 40
0.0
 40
0.0658188768433071
 40
0.1297465269068314
 40
0.1920719544880062
 40
0.2534594242982023
 40
0.3145695877964204
 40
0.3762798811880262
 40
0.4390256536685597
 40
0.5032670288290861
 40
0.5674928228792954
 40
0.6297047956052446
 40
0.6909996492157557
 40
0.751451650917447
 40
0.8120043642646947
 40
0.8731496810680427
 40
0.9356354837317856
 40
0.9999999999999999
 40
0.9999999999999999
 40
0.9999999999999999
 40
0.9999999999999999
 10
-7.497125408283575
 20
13.00470844212108
 30
0.0
 10
-7.560549727263154
 20
13.00625782897537
 30
0.0
 10
-7.685575943201509
 20
13.00931208290404
 30
0.0
 10
-7.869112978581276
 20
13.03549348770608
 30
0.0
 10
-8.045390722429055
 20
13.07643479150729
 30
0.0
 10
-8.2139050736414
 20
13.13494422772584
 30
0.0
 10
-8.374750003239885
 20
13.21056145845068
 30
0.0
 10
-8.528240085934438
 20
13.3027658375157
 30
0.0
 10
-8.673759233176089
 20
13.41217297869632
 30
0.0
 10
-8.810100979660616
 20
13.53633955327731
 30
0.0
 10
-8.934850177843057
 20
13.6715111052931
 30
0.0
 10
-9.043609553535957
 20
13.8163453603713
 30
0.0
 10
-9.135834666855144
 20
13.96800081701476
 30
0.0
 10
-9.211197999350413
 20
14.12689834112745
 30
0.0
 10
-9.270862458695122
 20
14.29226978382922
 30
0.0
 10
-9.311567276834209
 20
14.46521826131868
 30
0.0
 10
-9.337903228903059
 20
14.64475776713346
 30
0.0
 10
-9.340938075384782
 20
14.76700066545877
 30
0.0
 10
-9.342477972386138
 20
14.82902735237749
 30
0.0
  0
SPLINE
  5
8E
330
1F
100
AcDbEntity
  8
0
  6
Continuous
 62
     7
370
    15
100
AcDbSpline
210
0.0
220
0.0
230
1.0
 70
     8
 71
     3
 72
    31
 73
    27
 74
     0
 42
0.000000001
 43
0.00000001
 40
0.0
 40
0.0
 40
0.0
 40
0.0
 40
0.0432089861713368
 40
0.0858728716306187
 40
0.1281200066967029
 40
0.1701519644541994
 40
0.2119176209878615
 40
0.2537530026191239
 40
0.2960064088559507
 40
0.3384433571447839
 40
0.3810153681620335
 40
0.4228204794407608
 40
0.4640890557943133
 40
0.5051258486836868
 40
0.545974970685241
 40
0.5869852111338594
 40
0.6283385916346622
 40
0.6700838015912062
 40
0.7119916023637226
 40
0.7530391548630186
 40
0.7940493953116374
 40
0.8348855427015818
 40
0.8754983129295127
 40
0.9165472998303793
 40
0.9580037786449608
 40
1.0
 40
1.0
 40
1.0
 40
1.0
 10
-9.342477972386138
 20
14.82902735237749
 30
0.0
 10
-9.341943336881023
 20
14.87066002151414
 30
0.0
 10
-9.340880810537136
 20
14.95340014502076
 30
0.0
 10
-9.32808911806832
 20
15.0762667451731
 30
0.0
 10
-9.309527416861592
 20
15.19715740294009
 30
0.0
 10
-9.282925504312194
 20
15.31572835090441
 30
0.0
 10
-9.2481338373257
 20
15.43168933560671
 30
0.0
 10
-9.207081809935433
 20
15.54584009844305
 30
0.0
 10
-9.156941964577921
 20
15.65702382218847
 30
0.0
 10
-9.100261316539074
 20
15.7657672138996
 30
0.0
 10
-9.036999508516248
 20
15.87037511973589
 30
0.0
 10
-8.967123759064263
 20
15.969254702887
 30
0.0
 10
-8.893088390596393
 20
16.06323569966927
 30
0.0
 10
-8.811924996968344
 20
16.1498827035083
 30
0.0
 10
-8.726308551772872
 20
16.23171635989824
 30
0.0
 10
-8.634850173638643
 20
16.30747907691845
 30
0.0
 10
-8.538107929273092
 20
16.377854027875
 30
0.0
 10
-8.435665549507505
 20
16.44127436895543
 30
0.0
 10
-8.330047274627947
 20
16.49863350357128
 30
0.0
 10
-8.221170496848574
 20
16.54785535455402
 30
0.0
 10
-8.110513925342923
 20
16.59010141606455
 30
0.0
 10
-7.997559277417436
 20
16.62434224126159
 30
0.0
 10
-7.882606505337099
 20
16.65137427725359
 30
0.0
 10
-7.765404720764225
 20
16.66978163096245
 30
0.0
 10
-7.646047294484783
 20
16.68260594884992
 30
0.0
 10
-7.5656359755348
 20
16.68366345083923
 30
0.0
 10
-7.525170280078447
 20
16.68419562160826
 30
0.0
  0
SPLINE
  5
8F
330
1F
100
AcDbEntity
  8
0
  6
Continuous
 62
     7
370
    15
100
AcDbSpline
210
0.0
220
0.0
230
1.0
 70
     8
 71
     3
 72
    23
 73
    19
 74
     0
 42
0.000000001
 43
0.00000001
 40
0.0
 40
0.0
 40
0.0
 40
0.0
 40
0.06657003521518
 40
0.1307490414821779
 40
0.1934128000295039
 40
0.2549893988897082
 40
0.3161135558759002
 40
0.3772617579089841
 40
0.4394007841555524
 40
0.5029705893719757
 40
0.566524976360731
 40
0.6282311025133082
 40
0.6890906105998631
 40
0.7493446689958041
 40
0.8101695933722063
 40
0.8716098243170433
 40
0.9348691840727635
 40
0.9999999999999999
 40
0.9999999999999999
 40
0.9999999999999999
 40
0.9999999999999999
 10
-7.525170280078447
 20
16.68419562160826
 30
0.0
 10
-7.460362174170415
 20
16.6825541422372
 30
0.0
 10
-7.333073707214361
 20
16.67933014132319
 30
0.0
 10
-7.145998809490376
 20
16.65465103776781
 30
0.0
 10
-6.967403714205812
 20
16.61195564780074
 30
0.0
 10
-6.795833575404032
 20
16.55509266532001
 30
0.0
 10
-6.633340598834829
 20
16.47923827993923
 30
0.0
 10
-6.478701706344246
 20
16.38755313159971
 30
0.0
 10
-6.332284832518676
 20
16.27907667284146
 30
0.0
 10
-6.196063450990263
 20
16.15464744598984
 30
0.0
 10
-6.071406500707062
 20
16.01926399208827
 30
0.0
 10
-5.961580614437778
 20
15.87478608201535
 30
0.0
 10
-5.869538320706065
 20
15.72208727970868
 30
0.0
 10
-5.793952533540817
 20
15.56162644906696
 30
0.0
 10
-5.734653923846997
 20
15.39376648109232
 30
0.0
 10
-5.693734880156387
 20
15.21761247835094
 30
0.0
 10
-5.667596730003458
 20
15.03430578827889
 30
0.0
 10
-5.664540952596
 20
14.90927892355514
 30
0.0
 10
-5.66299079289896
 20
14.84585427545441
 30
0.0
  0
SPLINE
  5
90
330
1F
100
AcDbEntity
  8
0
  6
Continuous
 62
     7
370
    15
100
AcDbSpline
210
0.0
220
0.0
230
1.0
 70
     8
 71
     3
 72
    23
 73
    19
 74
     0
 42
0.000000001
 43
0.00000001
 40
0.0
 40
0.0
 40
0.0
 40
0.0
 40
0.0652265038922754
 40
0.1285689957067287
 40
0.190320378104467
 40
0.251377988624063
 40
0.3123875283336938
 40
0.3737887042767235
 40
0.4364311597804502
 40
0.500566755309854
 40
0.5646867953847436
 40
0.6271355178835133
 40
0.6884554088949798
 40
0.7492457464637473
 40
0.8101551773646785
 40
0.8716709256529235
 40
0.9347734961077244
 40
1.0
 40
1.0
 40
1.0
 40
1.0
 10
-5.66299079289896
 20
14.84585427545441
 30
0.0
 10
-5.664540725423048
 20
14.78289682909785
 30
0.0
 10
-5.667595821988765
 20
14.65880040866587
 30
0.0
 10
-5.693764599524298
 20
14.47665696449516
 30
0.0
 10
-5.73480559949832
 20
14.30156626801293
 30
0.0
 10
-5.793401865680936
 20
14.13382061523802
 30
0.0
 10
-5.868627344144221
 20
13.973243051473
 30
0.0
 10
-5.961282515275165
 20
13.82025609759115
 30
0.0
 10
-6.070423726017303
 20
13.67480959920523
 30
0.0
 10
-6.194630577050622
 20
13.53849693398155
 30
0.0
 10
-6.330031619064672
 20
13.41349946328794
 30
0.0
 10
-6.475261885873631
 20
13.30458058760428
 30
0.0
 10
-6.627055205795648
 20
13.21085646300539
 30
0.0
 10
-6.787364913955016
 20
13.13607278904015
 30
0.0
 10
-6.954064950781454
 20
13.07630086859506
 30
0.0
 10
-7.128647273869956
 20
13.03554823856368
 30
0.0
 10
-7.31029382791035
 20
13.00926119531163
 30
0.0
 10
-7.43416483171293
 20
13.00624267934847
 30
0.0
 10
-7.497125408283575
 20
13.00470844212108
 30
0.0
  0
LINE
  5
91
330
1F
100
AcDbEntity
  8
0
  6
Continuous
 62
     7
370
    15
100
AcDbLine
 10
5.6
 20
0.0
 30
0.0
 11
19.6
 21
0.0
 31
0.0
  0
ARC
  5
92
330
1F
100
AcDbEntity
  8
0
  6
Continuous
 62
     7
370
    15
100
AcDbCircle
 10
19.6
 20
1.0
 30
0.0
 40
1.000000000000004
100
AcDbArc
 50
270.0
 51
0.0
  0
LINE
  5
93
330
1F
100
AcDbEntity
  8
0
  6
Continuous
 62
     7
370
    15
100
AcDbLine
 10
20.6
 20
1.0
 30
0.0
 11
20.6
 21
19.0
 31
0.0
  0
ARC
  5
94
330
1F
100
AcDbEntity
  8
0
  6
Continuous
 62
     7
370
    15
100
AcDbCircle
 10
19.6
 20
19.0
 30
0.0
 40
1.000000000000004
100
AcDbArc
 50
0.0
 51
90.0
  0
LINE
  5
95
330
1F
100
AcDbEntity
  8
0
  6
Continuous
 62
     7
370
    15
100
AcDbLine
 10
19.6
 20
20.0
 30
0.0
 11
-19.6
 21
20.0
 31
0.0
  0
ARC
  5
96
330
1F
100
AcDbEntity
  8
0
  6
Continuous
 62
     7
370
    15
100
AcDbCircle
 10
-19.6
 20
19.0
 30
0.0
 40
1.000000000000004
100
AcDbArc
 50
90.0
 51
180.0
  0
LINE
  5
97
330
1F
100
AcDbEntity
  8
0
  6
Continuous
 62
     7
370
    15
100
AcDbLine
 10
-20.6
 20
19.0
 30
0.0
 11
-20.6
 21
1.0
 31
0.0
  0
ARC
  5
98
330
1F
100
AcDbEntity
  8
0
  6
Continuous
 62
     7
370
    15
100
AcDbCircle
 10
-19.6
 20
1.0
 30
0.0
 40
1.000000000000004
100
AcDbArc
 50
180.0
 51
270.0
  0
LINE
  5
99
330
1F
100
AcDbEntity
  8
0
  6
Continuous
 62
     7
370
    15
100
AcDbLine
 10
-19.6
 20
0.0
 30
0.0
 11
-5.6
 21
0.0
 31
0.0
  0
LINE
  5
9A
330
1F
100
AcDbEntity
  8
0
  6
Continuous
 62
     7
370
    15
100
AcDbLine
 10
-5.6
 20
0.0
 30
0.0
 11
-5.6
 21
3.0
 31
0.0
  0
LINE
  5
9B
330
1F
100
AcDbEntity
  8
0
  6
Continuous
 62
     7
370
    15
100
AcDbLine
 10
-5.6
 20
3.0
 30
0.0
 11
-6.75
 21
3.0
 31
0.0
  0
LINE
  5
9C
330
1F
100
AcDbEntity
  8
0
  6
Continuous
 62
     7
370
    15
100
AcDbLine
 10
-6.75
 20
3.0
 30
0.0
 11
-6.75
 21
5.4
 31
0.0
  0
LINE
  5
9D
330
1F
100
AcDbEntity
  8
0
  6
Continuous
 62
     7
370
    15
100
AcDbLine
 10
-6.75
 20
5.4
 30
0.0
 11
-5.6
 21
5.4
 31
0.0
  0
LINE
  5
9E
330
1F
100
AcDbEntity
  8
0
  6
Continuous
 62
     7
370
    15
100
AcDbLine
 10
-5.6
 20
5.4
 30
0.0
 11
-5.6
 21
10.4
 31
0.0
  0
LINE
  5
9F
330
1F
100
AcDbEntity
  8
0
  6
Continuous
 62
     7
370
    15
100
AcDbLine
 10
-5.6
 20
10.4
 30
0.0
 11
-2.4
 21
10.4
 31
0.0
  0
LINE
  5
A0
330
1F
100
AcDbEntity
  8
0
  6
Continuous
 62
     7
370
    15
100
AcDbLine
 10
-2.4
 20
10.4
 30
0.0
 11
-2.4
 21
5.4
 31
0.0
  0
LINE
  5
A1
330
1F
100
AcDbEntity
  8
0
  6
Continuous
 62
     7
370
    15
100
AcDbLine
 10
-2.4
 20
5.4
 30
0.0
 11
-1.25
 21
5.4
 31
0.0
  0
LINE
  5
A2
330
1F
100
AcDbEntity
  8
0
  6
Continuous
 62
     7
370
    15
100
AcDbLine
 10
-1.25
 20
5.4
 30
0.0
 11
-1.25
 21
3.0
 31
0.0
  0
LINE
  5
A3
330
1F
100
AcDbEntity
  8
0
  6
Continuous
 62
     7
370
    15
100
AcDbLine
 10
-1.25
 20
3.0
 30
0.0
 11
-2.4
 21
3.0
 31
0.0
  0
LINE
  5
A4
330
1F
100
AcDbEntity
  8
0
  6
Continuous
 62
     7
370
    15
100
AcDbLine
 10
-2.4
 20
3.0
 30
0.0
 11
-2.4
 21
0.0
 31
0.0
  0
LINE
  5
A5
330
1F
100
AcDbEntity
  8
0
  6
Continuous
 62
     7
370
    15
100
AcDbLine
 10
-2.4
 20
0.0
 30
0.0
 11
2.4
 21
0.0
 31
0.0
  0
LINE
  5
A6
330
1F
100
AcDbEntity
  8
0
  6
Continuous
 62
     7
370
    15
100
AcDbLine
 10
2.4
 20
0.0
 30
0.0
 11
2.4
 21
3.0
 31
0.0
  0
LINE
  5
A7
330
1F
100
AcDbEntity
  8
0
  6
Continuous
 62
     7
370
    15
100
AcDbLine
 10
2.4
 20
3.0
 30
0.0
 11
1.25
 21
3.0
 31
0.0
  0
LINE
  5
A8
330
1F
100
AcDbEntity
  8
0
  6
Continuous
 62
     7
370
    15
100
AcDbLine
 10
1.25
 20
3.0
 30
0.0
 11
1.25
 21
5.4
 31
0.0
  0
LINE
  5
A9
330
1F
100
AcDbEntity
  8
0
  6
Continuous
 62
     7
370
    15
100
AcDbLine
 10
1.25
 20
5.4
 30
0.0
 11
2.4
 21
5.4
 31
0.0
  0
LINE
  5
AA
330
1F
100
AcDbEntity
  8
0
  6
Continuous
 62
     7
370
    15
100
AcDbLine
 10
2.4
 20
5.4
 30
0.0
 11
2.4
 21
10.4
 31
0.0
  0
LINE
  5
AB
330
1F
100
AcDbEntity
  8
0
  6
Continuous
 62
     7
370
    15
100
AcDbLine
 10
2.4
 20
10.4
 30
0.0
 11
5.6
 21
10.4
 31
0.0
  0
LINE
  5
AC
330
1F
100
AcDbEntity
  8
0
  6
Continuous
 62
     7
370
    15
100
AcDbLine
 10
5.6
 20
10.4
 30
0.0
 11
5.6
 21
5.4
 31
0.0
  0
LINE
  5
AD
330
1F
100
AcDbEntity
  8
0
  6
Continuous
 62
     7
370
    15
100
AcDbLine
 10
5.6
 20
5.4
 30
0.0
 11
6.75
 21
5.4
 31
0.0
  0
LINE
  5
AE
330
1F
100
AcDbEntity
  8
0
  6
Continuous
 62
     7
370
    15
100
AcDbLine
 10
6.75
 20
5.4
 30
0.0
 11
6.75
 21
3.0
 31
0.0
  0
LINE
  5
AF
330
1F
100
AcDbEntity
  8
0
  6
Continuous
 62
     7
370
    15
100
AcDbLine
 10
6.75
 20
3.0
 30
0.0
 11
5.6
 21
3.0
 31
0.0
  0
LINE
  5
B0
330
1F
100
AcDbEntity
  8
0
  6
Continuous
 62
     7
370
    15
100
AcDbLine
 10
5.6
 20
3.0
 30
0.0
 11
5.6
 21
0.0
 31
0.0
  0
LINE
  5
B1
330
1F
100
AcDbEntity
  8
0
  6
Continuous
 62
     7
370
    15
100
AcDbLine
 10
-11.8104266903
 20
13.0944520319
 30
0.0
 11
-12.1245292544
 21
13.0944520319
 31
0.0
  0
LINE
  5
B2
330
1F
100
AcDbEntity
  8
0
  6
Continuous
 62
     7
370
    15
100
AcDbLine
 10
-12.1245292544
 20
13.0944520319
 30
0.0
 11
-12.1245292544
 21
16.5944520319
 31
0.0
  0
LINE
  5
B3
330
1F
100
AcDbEntity
  8
0
  6
Continuous
 62
     7
370
    15
100
AcDbLine
 10
-12.1245292544
 20
16.5944520319
 30
0.0
 11
-11.4241085814
 21
16.5944520319
 31
0.0
  0
SPLINE
  5
B4
330
1F
100
AcDbEntity
  8
0
  6
Continuous
 62
     7
370
    15
100
AcDbSpline
210
0.0
220
0.0
230
1.0
 70
     8
 71
     3
 72
    15
 73
    11
 74
     0
 42
0.000000001
 43
0.00000001
 40
0.0
 40
0.0
 40
0.0
 40
0.0
 40
0.1762577548177997
 40
0.3384344138804761
 40
0.4848220507878373
 40
0.6171575782663326
 40
0.7346983606124764
 40
0.8373851838323604
 40
0.9263724209295838
 40
1.0
 40
1.0
 40
1.0
 40
1.0
 10
-11.4241085813605
 20
16.59445203186467
 30
0.0
 10
-11.37736745284692
 20
16.59429644587664
 30
0.0
 10
-11.28761930843786
 20
16.59399770354486
 30
0.0
 10
-11.15904603807822
 20
16.59233194063671
 30
0.0
 10
-11.04221894107803
 20
16.58755758492848
 30
0.0
 10
-10.93719910176089
 20
16.58344900145135
 30
0.0
 10
-10.84398844678458
 20
16.57595706012822
 30
0.0
 10
-10.76230115603664
 20
16.56879641300841
 30
0.0
 10
-10.69251345853542
 20
16.55942275222946
 30
0.0
 10
-10.65026760723284
 20
16.55071732926383
 30
0.0
 10
-10.6311398313605
 20
16.54677574981339
 30
0.0
  0
SPLINE
  5
B5
330
1F
100
AcDbEntity
  8
0
  6
Continuous
 62
     7
370
    15
100
AcDbSpline
210
0.0
220
0.0
230
1.0
 70
     8
 71
     3
 72
    23
 73
    19
 74
     0
 42
0.000000001
 43
0.00000001
 40
0.0
 40
0.0
 40
0.0
 40
0.0
 40
0.0642168426314317
 40
0.127063765693129
 40
0.1887445383478301
 40
0.2491321028350421
 40
0.3094525327106269
 40
0.3698266762476807
 40
0.4306501418384689
 40
0.4923519318794694
 40
0.5540721062625173
 40
0.6156897837449737
 40
0.6767977025065377
 40
0.7384390482469404
 40
0.8013169100648933
 40
0.8651845117115422
 40
0.9316413244190763
 40
1.0
 40
1.0
 40
1.0
 40
1.0
 10
-10.6311398313605
 20
16.54677574981339
 30
0.0
 10
-10.60553320722366
 20
16.54044898444782
 30
0.0
 10
-10.55486621775192
 20
16.5279304207959
 30
0.0
 10
-10.48191615171203
 20
16.50147081997227
 30
0.0
 10
-10.41240182776029
 20
16.47085119534756
 30
0.0
 10
-10.34661200343858
 20
16.43488747502949
 30
0.0
 10
-10.28487621224816
 20
16.39331269535696
 30
0.0
 10
-10.22655790145349
 20
16.34684457292181
 30
0.0
 10
-10.17139243807352
 20
16.29573736715135
 30
0.0
 10
-10.12161080789316
 20
16.23870252564867
 30
0.0
 10
-10.07467175619862
 20
16.17886601596869
 30
0.0
 10
-10.03508312969803
 20
16.1141622591275
 30
0.0
 10
-10.00095664997554
 20
16.04650073160349
 30
0.0
 10
-9.973786132975393
 20
15.975193313848
 30
0.0
 10
-9.951908159502244
 20
15.90093154198539
 30
0.0
 10
-9.93648192013129
 20
15.82304274525818
 30
0.0
 10
-9.927230732500487
 20
15.74188177017427
 30
0.0
 10
-9.926288876946966
 20
15.68652386138265
 30
0.0
 10
-9.925811305719472
 20
15.65845443571082
 30
0.0
  0
SPLINE
  5
B6
330
1F
100
AcDbEntity
  8
0
  6
Continuous
 62
     7
370
    15
100
AcDbSpline
210
0.0
220
0.0
230
1.0
 70
     8
 71
     3
 72
    23
 73
    19
 74
     0
 42
0.000000001
 43
0.00000001
 40
0.0
 40
0.0
 40
0.0
 40
0.0
 40
0.0787802355821392
 40
0.1537206442085836
 40
0.2267135303087812
 40
0.2991911660659369
 40
0.3711899968376682
 40
0.443006414353409
 40
0.5166891732948811
 40
0.5932172166234125
 40
0.6338729178078456
 40
0.6769891422899794
 40
0.7228995063258276
 40
0.7719586105061442
 40
0.8242113233348357
 40
0.8793786506272024
 40
0.9379481193304183
 40
1.0
 40
1.0
 40
1.0
 40
1.0
 10
-9.925811305719472
 20
15.65845443571082
 30
0.0
 10
-9.92728030382797
 20
15.61181933109988
 30
0.0
 10
-9.930146699617609
 20
15.52082216321181
 30
0.0
 10
-9.956871803297632
 20
15.38876128180305
 30
0.0
 10
-10.00064832302639
 20
15.2655719671626
 30
0.0
 10
-10.0609716120357
 20
15.15140932924713
 30
0.0
 10
-10.13779108774919
 20
15.04849868388701
 30
0.0
 10
-10.23011587885254
 20
14.95810822858313
 30
0.0
 10
-10.33799749034221
 20
14.88246831599231
 30
0.0
 10
-10.4384268062814
 20
14.83001551129081
 30
0.0
 10
-10.52714100597803
 20
14.79642260266605
 30
0.0
 10
-10.60017431876606
 20
14.77278624380701
 30
0.0
 10
-10.67984129626188
 20
14.75452427852994
 30
0.0
 10
-10.76537863086775
 20
14.73816414675934
 30
0.0
 10
-10.85714228635986
 20
14.72581245234783
 30
0.0
 10
-10.95491232574906
 20
14.71676585787847
 30
0.0
 10
-11.05875847737915
 20
14.71111180918019
 30
0.0
 10
-11.13009754673229
 20
14.71026980429124
 30
0.0
 10
-11.16679688264255
 20
14.70983664724929
 30
0.0
  0
LINE
  5
B7
330
1F
100
AcDbEntity
  8
0
  6
Continuous
 62
     7
370
    15
100
AcDbLine
 10
-11.1667968826
 20
14.7098366472
 30
0.0
 11
-9.8809395108
 21
13.0944520319
 31
0.0
  0
LINE
  5
B8
330
1F
100
AcDbEntity
  8
0
  6
Continuous
 62
     7
370
    15
100
AcDbLine
 10
-9.8809395108
 20
13.0944520319
 30
0.0
 11
-10.2693609852
 21
13.0944520319
 31
0.0
  0
LINE
  5
B9
330
1F
100
AcDbEntity
  8
0
  6
Continuous
 62
     7
370
    15
100
AcDbLine
 10
-10.2693609852
 20
13.0944520319
 30
0.0
 11
-11.555218357
 21
14.7098366472
 31
0.0
  0
LINE
  5
BA
330
1F
100
AcDbEntity
  8
0
  6
Continuous
 62
     7
370
    15
100
AcDbLine
 10
-11.555218357
 20
14.7098366472
 30
0.0
 11
-11.8104266903
 21
14.7098366472
 31
0.0
  0
LINE
  5
BB
330
1F
100
AcDbEntity
  8
0
  6
Continuous
 62
     7
370
    15
100
AcDbLine
 10
-11.8104266903
 20
14.7098366472
 30
0.0
 11
-11.8104266903
 21
13.0944520319
 31
0.0
  0
LINE
  5
BC
330
1F
100
AcDbEntity
  8
0
  6
Continuous
 62
     7
370
    15
100
AcDbLine
 10
1.3370092071
 20
13.0944520319
 30
0.0
 11
1.022906643
 21
13.0944520319
 31
0.0
  0
LINE
  5
BD
330
1F
100
AcDbEntity
  8
0
  6
Continuous
 62
     7
370
    15
100
AcDbLine
 10
1.022906643
 20
13.0944520319
 30
0.0
 11
1.022906643
 21
16.5944520319
 31
0.0
  0
LINE
  5
BE
330
1F
100
AcDbEntity
  8
0
  6
Continuous
 62
     7
370
    15
100
AcDbLine
 10
1.022906643
 20
16.5944520319
 30
0.0
 11
1.7233273161
 21
16.5944520319
 31
0.0
  0
SPLINE
  5
BF
330
1F
100
AcDbEntity
  8
0
  6
Continuous
 62
     7
370
    15
100
AcDbSpline
210
0.0
220
0.0
230
1.0
 70
     8
 71
     3
 72
    15
 73
    11
 74
     0
 42
0.000000001
 43
0.00000001
 40
0.0
 40
0.0
 40
0.0
 40
0.0
 40
0.1762577548177997
 40
0.338434413880474
 40
0.4848220507878351
 40
0.6171575782663326
 40
0.7346983606124764
 40
0.8373851838323604
 40
0.9263724209295838
 40
1.0
 40
1.0
 40
1.0
 40
1.0
 10
1.723327316075401
 20
16.59445203186467
 30
0.0
 10
1.77006844458898
 20
16.59429644587663
 30
0.0
 10
1.859816588998043
 20
16.59399770354485
 30
0.0
 10
1.98838985935768
 20
16.59233194063672
 30
0.0
 10
2.105216956357872
 20
16.58755758492847
 30
0.0
 10
2.21023679567501
 20
16.58344900145136
 30
0.0
 10
2.303447450651315
 20
16.57595706012821
 30
0.0
 10
2.385134741399265
 20
16.56879641300841
 30
0.0
 10
2.454922438900476
 20
16.55942275222946
 30
0.0
 10
2.497168290203053
 20
16.55071732926383
 30
0.0
 10
2.5162960660754
 20
16.54677574981339
 30
0.0
  0
SPLINE
  5
C0
330
1F
100
AcDbEntity
  8
0
  6
Continuous
 62
     7
370
    15
100
AcDbSpline
210
0.0
220
0.0
230
1.0
 70
     8
 71
     3
 72
    23
 73
    19
 74
     0
 42
0.000000001
 43
0.00000001
 40
0.0
 40
0.0
 40
0.0
 40
0.0
 40
0.0642168426314304
 40
0.127063765693129
 40
0.1887445383478301
 40
0.2491321028350409
 40
0.3094525327106269
 40
0.3698266762476808
 40
0.4306501418384679
 40
0.4923519318794694
 40
0.5540721062625166
 40
0.6156897837449737
 40
0.6767977025065377
 40
0.7384390482469403
 40
0.8013169100648933
 40
0.8651845117115423
 40
0.9316413244190763
 40
1.0
 40
1.0
 40
1.0
 40
1.0
 10
2.5162960660754
 20
16.54677574981339
 30
0.0
 10
2.541902690212235
 20
16.54044898444782
 30
0.0
 10
2.592569679683975
 20
16.52793042079591
 30
0.0
 10
2.665519745723867
 20
16.50147081997227
 30
0.0
 10
2.735034069675606
 20
16.47085119534756
 30
0.0
 10
2.800823893997323
 20
16.43488747502949
 30
0.0
 10
2.862559685187737
 20
16.39331269535696
 30
0.0
 10
2.920877995982408
 20
16.34684457292181
 30
0.0
 10
2.976043459362377
 20
16.29573736715133
 30
0.0
 10
3.025825089542737
 20
16.23870252564868
 30
0.0
 10
3.072764141237286
 20
16.17886601596868
 30
0.0
 10
3.112352767737868
 20
16.11416225912751
 30
0.0
 10
3.146479247460357
 20
16.04650073160349
 30
0.0
 10
3.173649764460504
 20
15.975193313848
 30
0.0
 10
3.195527737933658
 20
15.90093154198539
 30
0.0
 10
3.210953977304608
 20
15.82304274525818
 30
0.0
 10
3.220205164935414
 20
15.74188177017427
 30
0.0
 10
3.221147020488933
 20
15.68652386138265
 30
0.0
 10
3.221624591716425
 20
15.65845443571082
 30
0.0
  0
SPLINE
  5
C1
330
1F
100
AcDbEntity
  8
0
  6
Continuous
 62
     7
370
    15
100
AcDbSpline
210
0.0
220
0.0
230
1.0
 70
     8
 71
     3
 72
    23
 73
    19
 74
     0
 42
0.000000001
 43
0.00000001
 40
0.0
 40
0.0
 40
0.0
 40
0.0
 40
0.0787802355821392
 40
0.1537206442085836
 40
0.2267135303087812
 40
0.2991911660659368
 40
0.3711899968376681
 40
0.4430064143534089
 40
0.5166891732948801
 40
0.5932172166234116
 40
0.6338729178078457
 40
0.6769891422899785
 40
0.7228995063258268
 40
0.7719586105061442
 40
0.8242113233348356
 40
0.8793786506272023
 40
0.9379481193304183
 40
1.0
 40
1.0
 40
1.0
 40
1.0
 10
3.221624591716425
 20
15.65845443571082
 30
0.0
 10
3.220155593607927
 20
15.61181933109988
 30
0.0
 10
3.217289197818287
 20
15.52082216321182
 30
0.0
 10
3.190564094138266
 20
15.38876128180304
 30
0.0
 10
3.146787574409509
 20
15.26557196716261
 30
0.0
 10
3.086464285400198
 20
15.15140932924714
 30
0.0
 10
3.009644809686713
 20
15.04849868388701
 30
0.0
 10
2.917320018583356
 20
14.95810822858312
 30
0.0
 10
2.809438407093687
 20
14.88246831599231
 30
0.0
 10
2.709009091154503
 20
14.83001551129081
 30
0.0
 10
2.620294891457867
 20
14.79642260266605
 30
0.0
 10
2.547261578669844
 20
14.77278624380701
 30
0.0
 10
2.46759460117402
 20
14.75452427852993
 30
0.0
 10
2.38205726656814
 20
14.73816414675935
 30
0.0
 10
2.290293611076037
 20
14.72581245234782
 30
0.0
 10
2.192523571686833
 20
14.71676585787847
 30
0.0
 10
2.088677420056742
 20
14.71111180918018
 30
0.0
 10
2.0173383507036
 20
14.71026980429125
 30
0.0
 10
1.980639014793348
 20
14.70983664724929
 30
0.0
  0
LINE
  5
C2
330
1F
100
AcDbEntity
  8
0
  6
Continuous
 62
     7
370
    15
100
AcDbLine
 10
1.9806390148
 20
14.7098366472
 30
0.0
 11
3.2664963866
 21
13.0944520319
 31
0.0
  0
LINE
  5
C3
330
1F
100
AcDbEntity
  8
0
  6
Continuous
 62
     7
370
    15
100
AcDbLine
 10
3.2664963866
 20
13.0944520319
 30
0.0
 11
2.8780749122
 21
13.0944520319
 31
0.0
  0
LINE
  5
C4
330
1F
100
AcDbEntity
  8
0
  6
Continuous
 62
     7
370
    15
100
AcDbLine
 10
2.8780749122
 20
13.0944520319
 30
0.0
 11
1.5922175404
 21
14.7098366472
 31
0.0
  0
LINE
  5
C5
330
1F
100
AcDbEntity
  8
0
  6
Continuous
 62
     7
370
    15
100
AcDbLine
 10
1.5922175404
 20
14.7098366472
 30
0.0
 11
1.3370092071
 21
14.7098366472
 31
0.0
  0
LINE
  5
C6
330
1F
100
AcDbEntity
  8
0
  6
Continuous
 62
     7
370
    15
100
AcDbLine
 10
1.3370092071
 20
14.7098366472
 30
0.0
 11
1.3370092071
 21
13.0944520319
 31
0.0
  0
SPLINE
  5
C7
330
1F
100
AcDbEntity
  8
0
  6
Continuous
 62
     7
370
    15
100
AcDbSpline
210
0.0
220
0.0
230
1.0
 70
     8
 71
     3
 72
    23
 73
    19
 74
     0
 42
0.000000001
 43
0.00000001
 40
0.0
 40
0.0
 40
0.0
 40
0.0
 40
0.0658188768433065
 40
0.1297465269068312
 40
0.1920719544880055
 40
0.2534594242982028
 40
0.3145695877964199
 40
0.3762798811880263
 40
0.4390256536685593
 40
0.5032670288290858
 40
0.5674928228792951
 40
0.6297047956052444
 40
0.6909996492157557
 40
0.7514516509174471
 40
0.8120043642646949
 40
0.8731496810680428
 40
0.9356354837317857
 40
1.0
 40
1.0
 40
1.0
 40
1.0
 10
8.432361771203604
 20
13.00470844212108
 30
0.0
 10
8.368937452224026
 20
13.00625782897537
 30
0.0
 10
8.243911236285669
 20
13.00931208290404
 30
0.0
 10
8.060374200905905
 20
13.03549348770609
 30
0.0
 10
7.884096457058128
 20
13.07643479150729
 30
0.0
 10
7.715582105845777
 20
13.13494422772584
 30
0.0
 10
7.554737176247297
 20
13.21056145845069
 30
0.0
 10
7.40124709355274
 20
13.3027658375157
 30
0.0
 10
7.25572794631109
 20
13.41217297869633
 30
0.0
 10
7.119386199826566
 20
13.5363395532773
 30
0.0
 10
6.994637001644122
 20
13.6715111052931
 30
0.0
 10
6.885877625951227
 20
13.8163453603713
 30
0.0
 10
6.793652512632035
 20
13.96800081701477
 30
0.0
 10
6.718289180136767
 20
14.12689834112745
 30
0.0
 10
6.658624720792059
 20
14.29226978382922
 30
0.0
 10
6.617919902652974
 20
14.46521826131868
 30
0.0
 10
6.591583950584119
 20
14.64475776713347
 30
0.0
 10
6.588549104102397
 20
14.76700066545877
 30
0.0
 10
6.587009207101042
 20
14.82902735237749
 30
0.0
  0
SPLINE
  5
C8
330
1F
100
AcDbEntity
  8
0
  6
Continuous
 62
     7
370
    15
100
AcDbSpline
210
0.0
220
0.0
230
1.0
 70
     8
 71
     3
 72
    31
 73
    27
 74
     0
 42
0.000000001
 43
0.00000001
 40
0.0
 40
0.0
 40
0.0
 40
0.0
 40
0.0432089861713368
 40
0.0858728716306187
 40
0.1281200066967029
 40
0.1701519644541994
 40
0.2119176209878615
 40
0.2537530026191237
 40
0.2960064088559508
 40
0.3384433571447839
 40
0.3810153681620332
 40
0.4228204794407606
 40
0.4640890557943135
 40
0.505125848683687
 40
0.5459749706852413
 40
0.5869852111338596
 40
0.628338591634662
 40
0.670083801591206
 40
0.7119916023637218
 40
0.753039154863019
 40
0.7940493953116371
 40
0.8348855427015814
 40
0.8754983129295131
 40
0.9165472998303791
 40
0.9580037786449614
 40
1.0
 40
1.0
 40
1.0
 40
1.0
 10
6.587009207101042
 20
14.82902735237749
 30
0.0
 10
6.587543842606157
 20
14.87066002151415
 30
0.0
 10
6.588606368950045
 20
14.95340014502076
 30
0.0
 10
6.601398061418862
 20
15.07626674517309
 30
0.0
 10
6.619959762625593
 20
15.1971574029401
 30
0.0
 10
6.646561675174986
 20
15.31572835090441
 30
0.0
 10
6.681353342161482
 20
15.43168933560671
 30
0.0
 10
6.722405369551745
 20
15.54584009844305
 30
0.0
 10
6.772545214909263
 20
15.65702382218847
 30
0.0
 10
6.829225862948109
 20
15.7657672138996
 30
0.0
 10
6.89248767097093
 20
15.87037511973588
 30
0.0
 10
6.962363420422913
 20
15.96925470288701
 30
0.0
 10
7.03639878889079
 20
16.06323569966927
 30
0.0
 10
7.117562182518834
 20
16.1498827035083
 30
0.0
 10
7.203178627714313
 20
16.23171635989824
 30
0.0
 10
7.294637005848535
 20
16.30747907691845
 30
0.0
 10
7.39137925021409
 20
16.37785402787501
 30
0.0
 10
7.493821629979673
 20
16.44127436895543
 30
0.0
 10
7.599439904859231
 20
16.49863350357127
 30
0.0
 10
7.708316682638605
 20
16.54785535455401
 30
0.0
 10
7.818973254144256
 20
16.59010141606456
 30
0.0
 10
7.93192790206974
 20
16.62434224126159
 30
0.0
 10
8.046880674150081
 20
16.65137427725359
 30
0.0
 10
8.164082458722957
 20
16.66978163096245
 30
0.0
 10
8.283439885002394
 20
16.68260594884993
 30
0.0
 10
8.363851203952382
 20
16.68366345083924
 30
0.0
 10
8.404316899408736
 20
16.68419562160826
 30
0.0
  0
SPLINE
  5
C9
330
1F
100
AcDbEntity
  8
0
  6
Continuous
 62
     7
370
    15
100
AcDbSpline
210
0.0
220
0.0
230
1.0
 70
     8
 71
     3
 72
    23
 73
    19
 74
     0
 42
0.000000001
 43
0.00000001
 40
0.0
 40
0.0
 40
0.0
 40
0.0
 40
0.0665700352151803
 40
0.1307490414821779
 40
0.1934128000295036
 40
0.2549893988897082
 40
0.3161135558759001
 40
0.3772617579089837
 40
0.4394007841555525
 40
0.5029705893719757
 40
0.5665249763607312
 40
0.6282311025133082
 40
0.689090610599863
 40
0.7493446689958042
 40
0.8101695933722064
 40
0.8716098243170433
 40
0.9348691840727636
 40
1.0
 40
1.0
 40
1.0
 40
1.0
 10
8.404316899408734
 20
16.68419562160826
 30
0.0
 10
8.469125005316767
 20
16.68255414223719
 30
0.0
 10
8.59641347227282
 20
16.67933014132318
 30
0.0
 10
8.783488369996801
 20
16.65465103776781
 30
0.0
 10
8.962083465281372
 20
16.61195564780074
 30
0.0
 10
9.133653604083149
 20
16.55509266532001
 30
0.0
 10
9.296146580652351
 20
16.47923827993923
 30
0.0
 10
9.450785473142936
 20
16.38755313159972
 30
0.0
 10
9.597202346968503
 20
16.27907667284145
 30
0.0
 10
9.733423728496918
 20
16.15464744598985
 30
0.0
 10
9.85808067878012
 20
16.01926399208828
 30
0.0
 10
9.967906565049402
 20
15.87478608201535
 30
0.0
 10
10.05994885878111
 20
15.72208727970868
 30
0.0
 10
10.13553464594636
 20
15.56162644906696
 30
0.0
 10
10.19483325564019
 20
15.39376648109232
 30
0.0
 10
10.23575229933079
 20
15.21761247835094
 30
0.0
 10
10.26189044948373
 20
15.03430578827889
 30
0.0
 10
10.26494622689118
 20
14.90927892355514
 30
0.0
 10
10.26649638658822
 20
14.84585427545441
 30
0.0
  0
SPLINE
  5
CA
330
1F
100
AcDbEntity
  8
0
  6
Continuous
 62
     7
370
    15
100
AcDbSpline
210
0.0
220
0.0
230
1.0
 70
     8
 71
     3
 72
    23
 73
    19
 74
     0
 42
0.000000001
 43
0.00000001
 40
0.0
 40
0.0
 40
0.0
 40
0.0
 40
0.0652265038922753
 40
0.1285689957067287
 40
0.1903203781044668
 40
0.2513779886240627
 40
0.3123875283336938
 40
0.3737887042767235
 40
0.4364311597804499
 40
0.5005667553098537
 40
0.5646867953847436
 40
0.6271355178835127
 40
0.6884554088949789
 40
0.7492457464637466
 40
0.8101551773646786
 40
0.8716709256529235
 40
0.9347734961077234
 40
1.0
 40
1.0
 40
1.0
 40
1.0
 10
10.26649638658822
 20
14.84585427545441
 30
0.0
 10
10.26494645406413
 20
14.78289682909785
 30
0.0
 10
10.26189135749842
 20
14.65880040866587
 30
0.0
 10
10.23572257996288
 20
14.47665696449516
 30
0.0
 10
10.19468157998886
 20
14.30156626801293
 30
0.0
 10
10.13608531380625
 20
14.13382061523801
 30
0.0
 10
10.06085983534296
 20
13.973243051473
 30
0.0
 10
9.968204664212015
 20
13.82025609759115
 30
0.0
 10
9.859063453469878
 20
13.67480959920523
 30
0.0
 10
9.734856602436556
 20
13.53849693398155
 30
0.0
 10
9.599455560422507
 20
13.41349946328795
 30
0.0
 10
9.45422529361355
 20
13.30458058760427
 30
0.0
 10
9.302431973691531
 20
13.21085646300539
 30
0.0
 10
9.142122265532167
 20
13.13607278904015
 30
0.0
 10
8.975422228705721
 20
13.07630086859507
 30
0.0
 10
8.800839905617224
 20
13.03554823856368
 30
0.0
 10
8.619193351576829
 20
13.00926119531163
 30
0.0
 10
8.49532234777425
 20
13.00624267934847
 30
0.0
 10
8.432361771203604
 20
13.00470844212108
 30
0.0
  0
LINE
  5
CB
330
1F
100
AcDbEntity
  8
0
  6
Continuous
 62
     7
370
    15
100
AcDbLine
 10
11.3434194635
 20
13.0944520319
 30
0.0
 11
11.3434194635
 21
16.2354776729
 31
0.0
  0
LINE
  5
CC
330
1F
100
AcDbEntity
  8
0
  6
Continuous
 62
     7
370
    15
100
AcDbLine
 10
11.3434194635
 20
16.2354776729
 30
0.0
 11
10.5805989507
 21
16.2354776729
 31
0.0
  0
LINE
  5
CD
330
1F
100
AcDbEntity
  8
0
  6
Continuous
 62
     7
370
    15
100
AcDbLine
 10
10.5805989507
 20
16.2354776729
 30
0.0
 11
10.5805989507
 21
16.5944520319
 31
0.0
  0
LINE
  5
CE
330
1F
100
AcDbEntity
  8
0
  6
Continuous
 62
     7
370
    15
100
AcDbLine
 10
10.5805989507
 20
16.5944520319
 30
0.0
 11
12.4203425404
 21
16.5944520319
 31
0.0
  0
LINE
  5
CF
330
1F
100
AcDbEntity
  8
0
  6
Continuous
 62
     7
370
    15
100
AcDbLine
 10
12.4203425404
 20
16.5944520319
 30
0.0
 11
12.4203425404
 21
16.2354776729
 31
0.0
  0
LINE
  5
D0
330
1F
100
AcDbEntity
  8
0
  6
Continuous
 62
     7
370
    15
100
AcDbLine
 10
12.4203425404
 20
16.2354776729
 30
0.0
 11
11.6575220276
 21
16.2354776729
 31
0.0
  0
LINE
  5
D1
330
1F
100
AcDbEntity
  8
0
  6
Continuous
 62
     7
370
    15
100
AcDbLine
 10
11.6575220276
 20
16.2354776729
 30
0.0
 11
11.6575220276
 21
13.0944520319
 31
0.0
  0
LINE
  5
D2
330
1F
100
AcDbEntity
  8
0
  6
Continuous
 62
     7
370
    15
100
AcDbLine
 10
11.6575220276
 20
13.0944520319
 30
0.0
 11
11.3434194635
 21
13.0944520319
 31
0.0
  0
MTEXT
  5
D4
330
1F
100
AcDbEntity
  8
0
  6
Continuous
 62
     7
100
AcDbMText
 10
-20.6
 20
-1.0195663917
 30
0.0
 40
4.83362
 41
0.0
 71
     1
 72
     1
  1
SOLIDWORKS Educational Edition.
  7
SLDTEXTSTYLE0
 73
     1
 44
1.0
  0
MTEXT
  5
D5
330
1F
100
AcDbEntity
  8
0
  6
Continuous
 62
     7
100
AcDbMText
 10
-20.6
 20
-8.2699963917
 30
0.0
 40
4.83362
 41
0.0
 71
     1
 72
     1
  1
For Instructional Use Only.
  7
SLDTEXTSTYLE0
 73
     1
 44
1.0
  0
ENDSEC
  0
SECTION
  2
OBJECTS
  0
DICTIONARY
  5
C
330
0
100
AcDbDictionary
281
     1
  3
ACAD_GROUP
350
D
  3
ACAD_LAYOUT
350
1A
  3
ACAD_MLINESTYLE
350
17
  3
ACAD_PLOTSETTINGS
350
19
  3
ACAD_PLOTSTYLENAME
350
E
  3
ACAD_SCALELIST
350
47
  0
DICTIONARY
  5
D
102
{ACAD_REACTORS
330
C
102
}
330
C
100
AcDbDictionary
281
     1
  0
DICTIONARY
  5
1A
102
{ACAD_REACTORS
330
C
102
}
330
C
100
AcDbDictionary
281
     1
  3
Layout1
350
1E
  3
Layout2
350
26
  3
Model
350
22
  0
DICTIONARY
  5
17
102
{ACAD_REACTORS
330
C
102
}
330
C
100
AcDbDictionary
281
     1
  3
Standard
350
18
  0
DICTIONARY
  5
19
102
{ACAD_REACTORS
330
C
102
}
330
C
100
AcDbDictionary
281
     1
  0
ACDBDICTIONARYWDFLT
  5
E
102
{ACAD_REACTORS
330
C
102
}
330
C
100
AcDbDictionary
281
     1
  3
Normal
350
F
100
AcDbDictionaryWithDefault
340
F
  0
DICTIONARY
  5
47
102
{ACAD_REACTORS
330
C
102
}
330
C
100
AcDbDictionary
281
     1
  3
A0
350
48
  3
A1
350
49
  3
A2
350
4A
  3
A3
350
4B
  3
A4
350
4C
  3
A5
350
4D
  3
A6
350
4E
  3
A7
350
4F
  3
A8
350
50
  3
A9
350
51
  3
B0
350
52
  3
B1
350
53
  3
B2
350
54
  3
B3
350
55
  3
B4
350
56
  3
B5
350
57
  3
B6
350
58
  3
B7
350
59
  3
B8
350
5A
  3
B9
350
5B
  3
C0
350
5C
  3
C1
350
5D
  3
C2
350
5E
  3
C3
350
5F
  3
C4
350
60
  3
C5
350
61
  3
C6
350
62
  3
C7
350
63
  3
C8
350
64
  3
C9
350
65
  3
D0
350
66
  3
D1
350
67
  3
D2
350
68
  0
LAYOUT
  5
1E
102
{ACAD_REACTORS
330
1A
102
}
330
1A
100
AcDbPlotSettings
  1

  2
none_device
  4

  6

 40
0.0
 41
0.0
 42
0.0
 43
0.0
 44
0.0
 45
0.0
 46
0.0
 47
0.0
 48
0.0
 49
0.0
140
0.0
141
0.0
142
1.0
143
1.0
 70
   688
 72
     1
 73
     0
 74
     5
  7

 75
    16
147
1.0
148
0.0
149
0.0
100
AcDbLayout
  1
Layout1
 70
     1
 71
     1
 10
0.0
 20
0.0
 11
420.0
 21
297.0
 12
0.0
 22
0.0
 32
0.0
 14
1.0000000000E+20
 24
1.0000000000E+20
 34
1.0000000000E+20
 15
-1.0000000000E+20
 25
-1.0000000000E+20
 35
-1.0000000000E+20
146
0.0
 13
0.0
 23
0.0
 33
0.0
 16
1.0
 26
0.0
 36
0.0
 17
0.0
 27
1.0
 37
0.0
 76
     0
330
1B
  0
LAYOUT
  5
26
102
{ACAD_REACTORS
330
1A
102
}
330
1A
100
AcDbPlotSettings
  1

  2
none_device
  4

  6

 40
0.0
 41
0.0
 42
0.0
 43
0.0
 44
0.0
 45
0.0
 46
0.0
 47
0.0
 48
0.0
 49
0.0
140
0.0
141
0.0
142
1.0
143
1.0
 70
   688
 72
     1
 73
     0
 74
     5
  7

 75
    16
147
1.0
148
0.0
149
0.0
100
AcDbLayout
  1
Layout2
 70
     1
 71
     2
 10
0.0
 20
0.0
 11
0.0
 21
0.0
 12
0.0
 22
0.0
 32
0.0
 14
0.0
 24
0.0
 34
0.0
 15
0.0
 25
0.0
 35
0.0
146
0.0
 13
0.0
 23
0.0
 33
0.0
 16
1.0
 26
0.0
 36
0.0
 17
0.0
 27
1.0
 37
0.0
 76
     0
330
23
  0
LAYOUT
  5
22
102
{ACAD_REACTORS
330
1A
102
}
330
1A
100
AcDbPlotSettings
  1

  2
none_device
  4
ANSI_A_(11.00_x_8.50_Inches)
  6

 40
6.35
 41
19.05
 42
6.35000508
 43
19.05000254
 44
279.4
 45
215.9
 46
133.34999746
 47
21.7626200892
 48
0.0
 49
0.0
140
0.0
141
0.0
142
0.2643203883
143
1.0
 70
  1696
 72
     0
 73
     0
 74
     0
  7

 75
     0
147
0.0179189148
148
-1300.4909072572
149
0.0
100
AcDbLayout
  1
Model
 70
     1
 71
     0
 10
0.0
 20
0.0
 11
420.0
 21
297.0
 12
0.0
 22
0.0
 32
0.0
 14
-20.6
 24
0.0
 34
0.0
 15
20.6
 25
20.0
 35
0.0
146
0.0
 13
0.0
 23
0.0
 33
0.0
 16
1.0
 26
0.0
 36
0.0
 17
0.0
 27
1.0
 37
0.0
 76
     0
330
1F
331
29
  0
MLINESTYLE
  5
18
102
{ACAD_REACTORS
330
17
102
}
330
17
100
AcDbMlineStyle
  2
Standard
 70
     0
  3

 62
   256
 51
90.0
 52
90.0
 71
     2
 49
0.5
 62
   256
  6
BYLAYER
 49
-0.5
 62
   256
  6
BYLAYER
  0
ACDBPLACEHOLDER
  5
F
102
{ACAD_REACTORS
330
E
102
}
330
E
  0
SCALE
  5
48
102
{ACAD_REACTORS
330
47
102
}
330
47
100
AcDbScale
 70
     0
300
1:1
140
1.0
141
1.0
290
     1
  0
SCALE
  5
49
102
{ACAD_REACTORS
330
47
102
}
330
47
100
AcDbScale
 70
     0
300
1:2
140
1.0
141
2.0
290
     0
  0
SCALE
  5
4A
102
{ACAD_REACTORS
330
47
102
}
330
47
100
AcDbScale
 70
     0
300
1:4
140
1.0
141
4.0
290
     0
  0
SCALE
  5
4B
102
{ACAD_REACTORS
330
47
102
}
330
47
100
AcDbScale
 70
     0
300
1:5
140
1.0
141
5.0
290
     0
  0
SCALE
  5
4C
102
{ACAD_REACTORS
330
47
102
}
330
47
100
AcDbScale
 70
     0
300
1:8
140
1.0
141
8.0
290
     0
  0
SCALE
  5
4D
102
{ACAD_REACTORS
330
47
102
}
330
47
100
AcDbScale
 70
     0
300
1:10
140
1.0
141
10.0
290
     0
  0
SCALE
  5
4E
102
{ACAD_REACTORS
330
47
102
}
330
47
100
AcDbScale
 70
     0
300
1:16
140
1.0
141
16.0
290
     0
  0
SCALE
  5
4F
102
{ACAD_REACTORS
330
47
102
}
330
47
100
AcDbScale
 70
     0
300
1:20
140
1.0
141
20.0
290
     0
  0
SCALE
  5
50
102
{ACAD_REACTORS
330
47
102
}
330
47
100
AcDbScale
 70
     0
300
1:30
140
1.0
141
30.0
290
     0
  0
SCALE
  5
51
102
{ACAD_REACTORS
330
47
102
}
330
47
100
AcDbScale
 70
     0
300
1:40
140
1.0
141
40.0
290
     0
  0
SCALE
  5
52
102
{ACAD_REACTORS
330
47
102
}
330
47
100
AcDbScale
 70
     0
300
1:50
140
1.0
141
50.0
290
     0
  0
SCALE
  5
53
102
{ACAD_REACTORS
330
47
102
}
330
47
100
AcDbScale
 70
     0
300
1:100
140
1.0
141
100.0
290
     0
  0
SCALE
  5
54
102
{ACAD_REACTORS
330
47
102
}
330
47
100
AcDbScale
 70
     0
300
2:1
140
2.0
141
1.0
290
     0
  0
SCALE
  5
55
102
{ACAD_REACTORS
330
47
102
}
330
47
100
AcDbScale
 70
     0
300
4:1
140
4.0
141
1.0
290
     0
  0
SCALE
  5
56
102
{ACAD_REACTORS
330
47
102
}
330
47
100
AcDbScale
 70
     0
300
8:1
140
8.0
141
1.0
290
     0
  0
SCALE
  5
57
102
{ACAD_REACTORS
330
47
102
}
330
47
100
AcDbScale
 70
     0
300
10:1
140
10.0
141
1.0
290
     0
  0
SCALE
  5
58
102
{ACAD_REACTORS
330
47
102
}
330
47
100
AcDbScale
 70
     0
300
100:1
140
100.0
141
1.0
290
     0
  0
SCALE
  5
59
102
{ACAD_REACTORS
330
47
102
}
330
47
100
AcDbScale
 70
     0
300
1/128" = 1'-0"
140
0.0078125
141
12.0
290
     0
  0
SCALE
  5
5A
102
{ACAD_REACTORS
330
47
102
}
330
47
100
AcDbScale
 70
     0
300
1/64" = 1'-0"
140
0.015625
141
12.0
290
     0
  0
SCALE
  5
5B
102
{ACAD_REACTORS
330
47
102
}
330
47
100
AcDbScale
 70
     0
300
1/32" = 1'-0"
140
0.03125
141
12.0
290
     0
  0
SCALE
  5
5C
102
{ACAD_REACTORS
330
47
102
}
330
47
100
AcDbScale
 70
     0
300
1/16" = 1'-0"
140
0.0625
141
12.0
290
     0
  0
SCALE
  5
5D
102
{ACAD_REACTORS
330
47
102
}
330
47
100
AcDbScale
 70
     0
300
3/32" = 1'-0"
140
0.09375
141
12.0
290
     0
  0
SCALE
  5
5E
102
{ACAD_REACTORS
330
47
102
}
330
47
100
AcDbScale
 70
     0
300
1/8" = 1'-0"
140
0.125
141
12.0
290
     0
  0
SCALE
  5
5F
102
{ACAD_REACTORS
330
47
102
}
330
47
100
AcDbScale
 70
     0
300
3/16" = 1'-0"
140
0.1875
141
12.0
290
     0
  0
SCALE
  5
60
102
{ACAD_REACTORS
330
47
102
}
330
47
100
AcDbScale
 70
     0
300
1/4" = 1'-0"
140
0.25
141
12.0
290
     0
  0
SCALE
  5
61
102
{ACAD_REACTORS
330
47
102
}
330
47
100
AcDbScale
 70
     0
300
3/8" = 1'-0"
140
0.375
141
12.0
290
     0
  0
SCALE
  5
62
102
{ACAD_REACTORS
330
47
102
}
330
47
100
AcDbScale
 70
     0
300
1/2" = 1'-0"
140
0.5
141
12.0
290
     0
  0
SCALE
  5
63
102
{ACAD_REACTORS
330
47
102
}
330
47
100
AcDbScale
 70
     0
300
3/4" = 1'-0"
140
0.75
141
12.0
290
     0
  0
SCALE
  5
64
102
{ACAD_REACTORS
330
47
102
}
330
47
100
AcDbScale
 70
     0
300
1" = 1'-0"
140
1.0
141
12.0
290
     0
  0
SCALE
  5
65
102
{ACAD_REACTORS
330
47
102
}
330
47
100
AcDbScale
 70
     0
300
1-1/2" = 1'-0"
140
1.5
141
12.0
290
     0
  0
SCALE
  5
66
102
{ACAD_REACTORS
330
47
102
}
330
47
100
AcDbScale
 70
     0
300
3" = 1'-0"
140
3.0
141
12.0
290
     0
  0
SCALE
  5
67
102
{ACAD_REACTORS
330
47
102
}
330
47
100
AcDbScale
 70
     0
300
6" = 1'-0"
140
6.0
141
12.0
290
     0
  0
SCALE
  5
68
102
{ACAD_REACTORS
330
47
102
}
330
47
100
AcDbScale
 70
     0
300
1'-0" = 1'-0"
140
12.0
141
12.0
290
     0
  0
ENDSEC
  0
EOF
